<svg width="100" height="100" viewBox="0 0 100 100" xmlns="http://www.w3.org/2000/svg">
  <defs>
    <linearGradient id="hairGradient5" x1="0%" y1="0%" x2="100%" y2="100%">
      <stop offset="0%" style="stop-color:#8B4513;stop-opacity:1" />
      <stop offset="100%" style="stop-color:#654321;stop-opacity:1" />
    </linearGradient>
    <linearGradient id="skinGradient5" x1="0%" y1="0%" x2="100%" y2="100%">
      <stop offset="0%" style="stop-color:#FFE4C4;stop-opacity:1" />
      <stop offset="100%" style="stop-color:#DEB887;stop-opacity:1" />
    </linearGradient>
  </defs>
  
  <!-- Background circle -->
  <circle cx="50" cy="50" r="50" fill="#E6E6FA"/>
  
  <!-- Family members -->
  <!-- Adult 1 (left) -->
  <circle cx="30" cy="35" r="8" fill="url(#skinGradient5)"/>
  <circle cx="30" cy="28" r="6" fill="url(#hairGradient5)"/>
  
  <!-- Adult 2 (right) -->
  <circle cx="70" cy="35" r="8" fill="url(#skinGradient5)"/>
  <circle cx="70" cy="28" r="6" fill="url(#hairGradient5)"/>
  
  <!-- Child 1 (bottom left) -->
  <circle cx="35" cy="65" r="6" fill="url(#skinGradient5)"/>
  <circle cx="35" cy="60" r="4" fill="url(#hairGradient5)"/>
  
  <!-- Child 2 (bottom right) -->
  <circle cx="65" cy="65" r="6" fill="url(#skinGradient5)"/>
  <circle cx="65" cy="60" r="4" fill="url(#hairGradient5)"/>
  
  <!-- Hearts representing family love -->
  <path d="M 45 50 Q 47 48 50 50 Q 53 48 55 50 Q 53 52 50 50 Q 47 52 45 50 Z" fill="#FF69B4"/>
  <path d="M 40 55 Q 42 53 45 55 Q 48 53 50 55 Q 48 57 45 55 Q 42 57 40 55 Z" fill="#FF69B4"/>
  <path d="M 50 55 Q 52 53 55 55 Q 58 53 60 55 Q 58 57 55 55 Q 52 57 50 55 Z" fill="#FF69B4"/>
</svg> 