<svg width="100" height="100" viewBox="0 0 100 100" xmlns="http://www.w3.org/2000/svg">
  <defs>
    <linearGradient id="hairGradient6" x1="0%" y1="0%" x2="100%" y2="100%">
      <stop offset="0%" style="stop-color:#8B4513;stop-opacity:1" />
      <stop offset="100%" style="stop-color:#654321;stop-opacity:1" />
    </linearGradient>
    <linearGradient id="skinGradient6" x1="0%" y1="0%" x2="100%" y2="100%">
      <stop offset="0%" style="stop-color:#FFE4C4;stop-opacity:1" />
      <stop offset="100%" style="stop-color:#DEB887;stop-opacity:1" />
    </linearGradient>
  </defs>
  
  <!-- Background circle -->
  <circle cx="50" cy="50" r="50" fill="#E6E6FA"/>
  
  <!-- Family members -->
  <!-- Adult 1 (left) -->
  <circle cx="25" cy="30" r="7" fill="url(#skinGradient6)"/>
  <circle cx="25" cy="24" r="5" fill="url(#hairGradient6)"/>
  
  <!-- Adult 2 (right) -->
  <circle cx="75" cy="30" r="7" fill="url(#skinGradient6)"/>
  <circle cx="75" cy="24" r="5" fill="url(#hairGradient6)"/>
  
  <!-- Child 1 (top) -->
  <circle cx="50" cy="20" r="5" fill="url(#skinGradient6)"/>
  <circle cx="50" cy="16" r="3" fill="url(#hairGradient6)"/>
  
  <!-- Child 2 (bottom left) -->
  <circle cx="30" cy="70" r="5" fill="url(#skinGradient6)"/>
  <circle cx="30" cy="66" r="3" fill="url(#hairGradient6)"/>
  
  <!-- Child 3 (bottom center) -->
  <circle cx="50" cy="75" r="5" fill="url(#skinGradient6)"/>
  <circle cx="50" cy="71" r="3" fill="url(#hairGradient6)"/>
  
  <!-- Child 4 (bottom right) -->
  <circle cx="70" cy="70" r="5" fill="url(#skinGradient6)"/>
  <circle cx="70" cy="66" r="3" fill="url(#hairGradient6)"/>
  
  <!-- Hearts representing family love -->
  <path d="M 40 45 Q 42 43 45 45 Q 48 43 50 45 Q 48 47 45 45 Q 42 47 40 45 Z" fill="#FF69B4"/>
  <path d="M 50 45 Q 52 43 55 45 Q 58 43 60 45 Q 58 47 55 45 Q 52 47 50 45 Z" fill="#FF69B4"/>
  <path d="M 35 55 Q 37 53 40 55 Q 43 53 45 55 Q 43 57 40 55 Q 37 57 35 55 Z" fill="#FF69B4"/>
  <path d="M 55 55 Q 57 53 60 55 Q 63 53 65 55 Q 63 57 60 55 Q 57 57 55 55 Z" fill="#FF69B4"/>
</svg> 